# xmcd CD database file
#
# Track frame offsets:
#	150
#	65225
#	116842
#	156630
#	182503
#
# Disc length: 2782 seconds
#
# Revision: 0
# Processed by: cddbd v1.5.2PL0 Copyright (c) Steve Scherf et al.
# Submitted via: CDex 1.70beta2
#
DISCID=490adc05
DTITLE=Aydın Esen - So many lifetimes
DYEAR=1989
DGENRE=Jazz
TTITLE0=So many lifetimes
TTITLE1=20 hemenway street
TTITLE2=Headgames
TTITLE3=Love has no eyes
TTITLE4=October 23rd
EXTD=YEAR: 1989
EXTT0=
EXTT1=
EXTT2=
EXTT3=
EXTT4=
PLAYORDER=
